<svg width="17" height="16" viewBox="0 0 17 16" fill="none" xmlns="http://www.w3.org/2000/svg">
<g clip-path="url(#clip0_306_112)">
<path d="M8.25001 0C3.83448 0 0.25 3.59286 0.25 8C0.25 12.4071 3.84287 16 8.25001 16C12.6571 16 16.25 12.4071 16.25 8C16.25 3.59286 12.6571 0 8.25001 0ZM8.25001 14.7492C4.53122 14.7492 1.50918 11.7272 1.50918 8.0084C1.50918 4.28961 4.53122 1.26758 8.25001 1.26758C11.9688 1.26758 14.9908 4.28961 14.9908 8.0084C14.9908 11.7272 11.9688 14.7492 8.25001 14.7492Z" fill="#E9E9E9"/>
<path d="M5.45417 4.77656V6.03574H5.99981V7.37048H5.45417V8.62966H5.99981V9.96439H5.45417V11.2236H11.0449V9.96439H10.4993V8.62966H11.0449V7.37048H10.4993V6.03574H11.0449V4.77656H5.45417ZM9.24011 9.96439H7.25899V8.62966H9.24011V9.96439ZM9.24011 7.37048H7.25899V6.03574H9.24011V7.37048Z" fill="#E9E9E9"/>
</g>
<defs>
<clipPath id="clip0_306_112">
<rect width="16" height="16" fill="white" transform="translate(0.25)"/>
</clipPath>
</defs>
</svg>
