<svg width="17" height="16" viewBox="0 0 17 16" fill="none" xmlns="http://www.w3.org/2000/svg">
<g clip-path="url(#clip0_306_153)">
<path d="M8.75 0C4.33447 0 0.75 3.59286 0.75 8C0.75 12.4071 4.34286 16 8.75 16C13.1571 16 16.75 12.4071 16.75 8C16.75 3.59286 13.1655 0 8.75 0ZM8.75 14.7492C5.03122 14.7492 2.00918 11.7272 2.00918 8.0084C2.00918 4.28961 5.03122 1.26758 8.75 1.26758C12.4688 1.26758 15.4908 4.28961 15.4908 8.0084C15.4908 11.7272 12.4688 14.7492 8.75 14.7492Z" fill="#E9E9E9"/>
<path d="M10.1174 7.8406C10.5623 7.63074 10.8729 7.18582 10.8729 6.65697C10.8729 5.89306 10.1342 5.27187 9.37032 5.25508V4.41563H8.7827V5.25508H8.25385V4.41563H7.66622V5.25508H6.29792V6.06935H7.12058V9.93924H6.29792V10.7535H7.66622V11.593H8.25385V10.7535H8.7827V11.593H9.37032V10.7535C10.2098 10.7451 11.2087 10.0652 11.2087 9.2257C11.2087 8.55414 10.7386 7.9917 10.1174 7.8406ZM8.21187 6.06096H9.15206C9.52142 6.06096 9.82362 6.36316 9.82362 6.73252C9.82362 7.10188 9.52142 7.40408 9.15206 7.40408H8.21187V6.06096ZM9.31155 9.93084H8.21187V8.36106H9.31155C9.74807 8.36106 10.1006 8.71363 10.1006 9.15015C10.1006 9.57827 9.74807 9.93084 9.31155 9.93084Z" fill="#E9E9E9"/>
</g>
<defs>
<clipPath id="clip0_306_153">
<rect width="16" height="16" fill="white" transform="translate(0.75)"/>
</clipPath>
</defs>
</svg>
