<svg width="17" height="16" viewBox="0 0 17 16" fill="none" xmlns="http://www.w3.org/2000/svg">
<g clip-path="url(#clip0_306_185)">
<path d="M8.75 0C4.34286 0 0.75 3.59286 0.75 8C0.75 12.4071 4.34286 16 8.75 16C13.1571 16 16.75 12.4071 16.75 8C16.75 3.59286 13.1655 0 8.75 0ZM8.75 14.7408C5.03122 14.7408 2.00918 11.7188 2.00918 8C2.00918 4.28122 5.03122 1.25918 8.75 1.25918C12.4688 1.25918 15.4908 4.28122 15.4908 8C15.4908 11.7188 12.4688 14.7408 8.75 14.7408Z" fill="#E9E9E9"/>
<path d="M11.0995 6.51426L11.578 5.75875L10.9903 5.17113L10.2348 5.64962C9.9662 5.48173 9.67239 5.35581 9.36179 5.28866L9.16872 4.41563H8.33766L8.14459 5.28866C7.82559 5.35581 7.53178 5.48173 7.26316 5.64962L6.50765 5.17113L5.92003 5.75875L6.39852 6.51426C6.23063 6.78289 6.10471 7.0767 6.03755 7.38729L5.17292 7.58876V8.41982L6.03755 8.6129C6.10471 8.93189 6.23063 9.2257 6.39852 9.48593L5.92003 10.2414L6.50765 10.8291L7.26316 10.3506C7.53178 10.5185 7.82559 10.6444 8.13619 10.7115L8.32927 11.5846H9.16033L9.3534 10.7115C9.67239 10.6444 9.9662 10.5185 10.2264 10.3506L10.9819 10.8291L11.5696 10.2414L11.0911 9.48593C11.259 9.2173 11.3849 8.9235 11.452 8.6129L12.3167 8.41982V7.58876L11.4688 7.38729C11.3933 7.0767 11.2674 6.78289 11.0995 6.51426ZM8.74899 10.0148C7.64091 10.0148 6.7343 9.11657 6.7343 8.0001C6.7343 6.88362 7.63252 5.9854 8.74899 5.9854C9.85707 5.9854 10.7637 6.88362 10.7637 8.0001C10.7637 9.11657 9.86547 10.0148 8.74899 10.0148Z" fill="#E9E9E9"/>
</g>
<defs>
<clipPath id="clip0_306_185">
<rect width="16" height="16" fill="white" transform="translate(0.75)"/>
</clipPath>
</defs>
</svg>
