<svg width="126" height="32" viewBox="0 0 126 32" fill="none" xmlns="http://www.w3.org/2000/svg">
<path d="M41.7861 24.98H45.2141V17.0294H53.487V14.0401H45.2141V10.0093H55.0095V6.9911H41.7861V24.98Z" fill="white"/>
<path d="M57.6283 10.0093H63.8139V24.98H67.2418V10.0093H73.4274V6.9911H57.6283V10.0093Z" fill="white"/>
<path d="M86.9906 16.012L80.6758 7.04896L80.6327 6.9911H77.6788V24.98H81.1067V13.0565L82.4951 15.2261L86.8518 21.4844L86.9667 21.6483L91.3904 15.2503C91.9985 14.3824 92.4868 13.6447 92.8459 13.0565V24.9751H96.2738V6.9911H93.3199L86.9906 16.012Z" fill="white"/>
<path d="M117.215 9.41146C115.429 7.62752 113.174 6.72109 110.512 6.72109C107.845 6.72109 105.591 7.62752 103.805 9.41146C102.024 11.2002 101.119 13.4084 101.119 15.9879C101.119 18.5819 102.024 20.8046 103.805 22.5933C105.586 24.3773 107.845 25.2837 110.512 25.2837C113.179 25.2837 115.434 24.3773 117.215 22.5933C118.996 20.8094 119.901 18.5867 119.901 15.9879C119.901 13.4084 118.996 11.1954 117.215 9.41146ZM114.668 20.3272C113.562 21.523 112.173 22.1256 110.541 22.1256C108.889 22.1256 107.486 21.5181 106.371 20.3272C105.255 19.1315 104.686 17.6706 104.686 15.9831C104.686 14.3004 105.251 12.8443 106.371 11.6534C107.486 10.4674 108.889 9.86468 110.541 9.86468C112.173 9.86468 113.562 10.4674 114.673 11.6486C115.783 12.8347 116.343 14.2908 116.343 15.9783C116.339 17.6706 115.774 19.1315 114.668 20.3272Z" fill="white"/>
<path d="M3.73433 19.7631L15.8853 7.52629V0L0 16.0024L3.73433 19.7631Z" fill="white"/>
<path d="M15.8852 31.9952V21.576L10.7146 26.788L15.8852 31.9952Z" fill="white"/>
<path d="M15.8853 10.694L5.30947 21.3446L9.13476 25.1969L15.8853 18.3987V10.694Z" fill="white"/>
<path d="M17.8769 0V7.52629L26.2887 15.9976L17.8769 24.4737V32L33.7621 15.9976L17.8769 0Z" fill="white"/>
<path d="M122.898 0.578538C121.16 0.578538 119.776 1.93819 119.776 3.63052C119.776 5.36142 121.16 6.71625 122.898 6.71625C124.65 6.71625 126 5.3566 126 3.63052C126 1.93337 124.655 0.578538 122.898 0.578538ZM122.917 6.06535C121.552 6.06535 120.552 4.98535 120.552 3.63052C120.552 2.29015 121.548 1.19568 122.898 1.19568C124.248 1.19568 125.224 2.29498 125.224 3.6498C125.224 4.98535 124.248 6.06535 122.917 6.06535Z" fill="white"/>
<path d="M123.601 3.72214V3.68357C123.97 3.57268 124.229 3.31232 124.229 2.97482C124.229 2.67589 124.099 2.43482 123.932 2.30464C123.712 2.17446 123.453 2.08285 122.879 2.08285C122.381 2.08285 121.993 2.12142 121.715 2.17446V5.22644H122.419V3.99697H122.749C123.137 3.99697 123.324 4.14643 123.376 4.47911C123.467 4.83108 123.525 5.11072 123.616 5.22162H124.372C124.3 5.11072 124.243 4.92269 124.152 4.45983C124.061 4.05482 123.898 3.83304 123.601 3.72214ZM122.768 3.49554H122.438V2.62285C122.51 2.60357 122.644 2.58428 122.826 2.58428C123.271 2.58428 123.472 2.77232 123.472 3.04714C123.472 3.36536 123.156 3.49554 122.768 3.49554Z" fill="white"/>
</svg>
