<svg width="17" height="16" viewBox="0 0 17 16" fill="none" xmlns="http://www.w3.org/2000/svg">
<g clip-path="url(#clip0_303_158)">
<path d="M5.00621 10.3757H5.9548V8.37783H7.54976V7.6559H5.9548V6.37993H7.9527V5.63281H5.00621V10.3757Z" fill="white"/>
<path d="M12.4179 5.63281H11.3434L10.4032 7.21938L9.36226 5.63281H8.23739L9.7652 7.94971L8.27937 10.3757H9.36226L10.3025 8.75558L11.377 10.3757H12.4934L10.9404 8.01686L12.4179 5.63281Z" fill="white"/>
<path d="M8.75 0C4.34286 0 0.75 3.59286 0.75 8C0.75 12.4071 4.34286 16 8.75 16C13.1571 16 16.75 12.4071 16.75 8C16.75 3.59286 13.1655 0 8.75 0ZM8.75 14.7492C5.03122 14.7492 2.00918 11.7272 2.00918 8.00839C2.00918 4.28961 5.03122 1.25918 8.75 1.25918C12.4688 1.25918 15.4908 4.28122 15.4908 8C15.4908 11.7188 12.4688 14.7492 8.75 14.7492Z" fill="white"/>
</g>
<defs>
<clipPath id="clip0_303_158">
<rect width="16" height="16" fill="white" transform="translate(0.75)"/>
</clipPath>
</defs>
</svg>
