<svg width="17" height="16" viewBox="0 0 17 16" fill="none" xmlns="http://www.w3.org/2000/svg">
<g clip-path="url(#clip0_306_168)">
<path d="M8.75 0C4.33447 0 0.75 3.59286 0.75 8C0.75 12.4071 4.34286 16 8.75 16C13.1571 16 16.75 12.4071 16.75 8C16.75 3.59286 13.1655 0 8.75 0ZM8.75 14.7492C5.03122 14.7492 2.00918 11.7272 2.00918 8.0084C2.00918 4.28961 5.03122 1.26758 8.75 1.26758C12.4688 1.26758 15.4908 4.28961 15.4908 8.0084C15.4908 11.7272 12.4688 14.7492 8.75 14.7492Z" fill="#E9E9E9"/>
<path d="M9.47944 6.45606H10.6715L9.00095 8.12657L7.74177 6.86739L4.87083 9.73832L5.76065 10.6281L7.74177 8.64703L9.00095 9.90621L11.5613 7.34588V8.5379H12.8205V5.19688H9.47944V6.45606Z" fill="#E9E9E9"/>
</g>
<defs>
<clipPath id="clip0_306_168">
<rect width="16" height="16" fill="white" transform="translate(0.75)"/>
</clipPath>
</defs>
</svg>
